<?xml version="1.0" encoding="UTF-8" standalone="no"?>
<!-- Created with Inkscape (http://www.inkscape.org/) -->

<svg
   width="256.17645"
   height="165.30934"
   viewBox="0 0 67.780018 43.738096"
   version="1.1"
   id="svg5"
   xmlns:inkscape="http://www.inkscape.org/namespaces/inkscape"
   xmlns:sodipodi="http://sodipodi.sourceforge.net/DTD/sodipodi-0.dtd"
   xmlns="http://www.w3.org/2000/svg"
   xmlns:svg="http://www.w3.org/2000/svg">
  <sodipodi:namedview
     id="namedview7"
     pagecolor="#000000"
     bordercolor="#000000"
     borderopacity="0.25"
     inkscape:showpageshadow="2"
     inkscape:pageopacity="0"
     inkscape:pagecheckerboard="0"
     inkscape:deskcolor="#d1d1d1"
     inkscape:document-units="mm"
     showgrid="false" />
  <defs
     id="defs2" />
  <g
     inkscape:label="Layer 1"
     inkscape:groupmode="layer"
     id="layer1"
     transform="translate(0.0233563,-23.652527)">
    <path
       id="rect3744"
       style="fill:none;stroke:#f5f5f5;stroke-width:1.98597"
       transform="matrix(0.93826324,-0.34592209,0.89201564,0.45200453,0,0)"
       d="m -18.200316,93.651794 c -0.725098,0.85962 -1.811052,1.403952 -3.028818,1.403952 h -46.411018 c -2.193252,0 -3.958939,-1.765687 -3.958939,-3.958939 V 78.312904 c 0,-1.132583 0.470844,-2.15115 1.228267,-2.871437"
       sodipodi:nodetypes="cssssc" />
    <path
       id="rect3744-6"
       style="fill:none;stroke:#f5f5f5;stroke-width:1.98597"
       d="m -47.828346,53.514996 h 46.4110181 c 2.193252,0 3.9589386,1.765686 3.9589386,3.958938 v 12.783903 c 0,2.193252 -1.7656866,3.958939 -3.9589386,3.958939 H -47.828346 c -2.193252,0 -3.958939,-1.765687 -3.958939,-3.958939 V 57.473934 c 0,-2.193252 1.765687,-3.958938 3.958939,-3.958938 z"
       transform="matrix(0.93826324,-0.34592209,0.89201564,0.45200453,0,0)" />
    <path
       style="fill:#f5f5f5;fill-opacity:1;stroke:none;stroke-width:1.61211;stroke-dasharray:none;stroke-opacity:1"
       d="m -0.01283447,42.22755 2.04e-6,16.447534 2.55880493,0.01122 -0.042041,-16.37762 z"
       id="path4425" />
    <path
       style="fill:#f5f5f5;fill-opacity:1;stroke:none;stroke-width:1.61471;stroke-dasharray:none;stroke-opacity:1"
       d="m 65.187359,32.242606 2e-6,16.447534 2.56706,0.01122 -0.04218,-16.37762 z"
       id="path4425-5" />
    <path
       style="fill:#f5f5f5;fill-opacity:1;stroke:none;stroke-width:2.21849;stroke-dasharray:none;stroke-opacity:1"
       d="m 15.649416,50.456927 6e-6,16.447534 4.845733,0.01122 -0.07962,-16.37762 z"
       id="path4425-7" />
    <text
       xml:space="preserve"
       style="font-style:normal;font-variant:normal;font-weight:normal;font-stretch:normal;font-size:7.05556px;font-family:serif;-inkscape-font-specification:'serif, Normal';font-variant-ligatures:normal;font-variant-caps:normal;font-variant-numeric:normal;font-variant-east-asian:normal;fill:#f5f5f5;fill-opacity:1;stroke:none;stroke-width:1.61211;stroke-dasharray:none;stroke-opacity:1"
       id="text5558"
       y="48.845116"
       x="-0.4078739"
       transform="rotate(-19.831768)"><tspan
         sodipodi:role="line"
         id="tspan5556"
         style="font-style:normal;font-variant:normal;font-weight:normal;font-stretch:normal;font-size:7.05556px;font-family:serif;-inkscape-font-specification:'serif, Normal';font-variant-ligatures:normal;font-variant-caps:normal;font-variant-numeric:normal;font-variant-east-asian:normal;stroke-width:1.61211"
         x="-0.4078739"
         y="48.845116">Hello World!</tspan></text>
  </g>
</svg>
