<?xml version="1.0" encoding="UTF-8" standalone="no"?>
<!-- Created with Inkscape (http://www.inkscape.org/) -->

<svg
   width="1920"
   height="1080"
   viewBox="0 0 507.99999 285.75"
   version="1.1"
   id="svg1"
   inkscape:export-filename="about-background.png"
   inkscape:export-xdpi="96"
   inkscape:export-ydpi="96"
   inkscape:version="1.3.2 (091e20ef0f, 2023-11-25)"
   sodipodi:docname="about-background.svg"
   xmlns:inkscape="http://www.inkscape.org/namespaces/inkscape"
   xmlns:sodipodi="http://sodipodi.sourceforge.net/DTD/sodipodi-0.dtd"
   xmlns="http://www.w3.org/2000/svg"
   xmlns:svg="http://www.w3.org/2000/svg">
  <sodipodi:namedview
     id="namedview1"
     pagecolor="#000000"
     bordercolor="#000000"
     borderopacity="0.25"
     inkscape:showpageshadow="2"
     inkscape:pageopacity="0.0"
     inkscape:pagecheckerboard="0"
     inkscape:deskcolor="#d1d1d1"
     inkscape:document-units="mm"
     inkscape:zoom="0.31684208"
     inkscape:cx="785.88046"
     inkscape:cy="566.52828"
     inkscape:window-width="1920"
     inkscape:window-height="1009"
     inkscape:window-x="0"
     inkscape:window-y="0"
     inkscape:window-maximized="1"
     inkscape:current-layer="layer1" />
  <defs
     id="defs1" />
  <g
     inkscape:label="Layer 1"
     inkscape:groupmode="layer"
     id="layer1">
    <path
       id="path1-5"
       style="fill:#fcffff;fill-opacity:1;stroke:#f5f5f5;stroke-width:5.24009;stroke-linecap:round;stroke-dasharray:none;stroke-opacity:1"
       d="M 73.771077,30.168097 C 46.906418,56.442281 46.906418,56.442281 46.906418,56.442281 m -1e-6,-26.274186 c 26.274185,26.864659 26.274185,26.864659 26.274185,26.864659" />
    <path
       id="path1-5-2"
       style="fill:#fcffff;fill-opacity:1;stroke:#f5f5f5;stroke-width:5.24009;stroke-linecap:round;stroke-dasharray:none;stroke-opacity:1"
       d="m 125.38664,149.60946 c -26.864653,26.27418 -26.864653,26.27418 -26.864653,26.27418 m -10e-7,-26.27418 c 26.274184,26.86465 26.274184,26.86465 26.274184,26.86465" />
    <path
       id="path1-5-7"
       style="fill:#fcffff;fill-opacity:1;stroke:#f5f5f5;stroke-width:5.24009;stroke-linecap:round;stroke-dasharray:none;stroke-opacity:1"
       d="m 251.08752,68.259748 c -26.86466,26.274179 -26.86466,26.274179 -26.86466,26.274179 m 0,-26.274179 c 26.27419,26.864657 26.27419,26.864657 26.27419,26.864657" />
    <path
       id="path1-5-6"
       style="fill:#fcffff;fill-opacity:1;stroke:#f5f5f5;stroke-width:5.24009;stroke-linecap:round;stroke-dasharray:none;stroke-opacity:1"
       d="m 474.9036,205.70382 c -26.86466,26.27417 -26.86466,26.27417 -26.86466,26.27417 m 0,-26.27418 c 26.27418,26.86466 26.27418,26.86466 26.27418,26.86466" />
    <path
       id="path1-5-61"
       style="fill:#fcffff;fill-opacity:1;stroke:#f5f5f5;stroke-width:5.24009;stroke-linecap:round;stroke-dasharray:none;stroke-opacity:1"
       d="m 376.44594,108.4941 c -26.86466,26.27417 -26.86466,26.27417 -26.86466,26.27417 m -10e-6,-26.27417 c 26.27419,26.86465 26.27419,26.86465 26.27419,26.86465" />
    <path
       id="path1-5-20"
       style="fill:#fcffff;fill-opacity:1;stroke:#f5f5f5;stroke-width:5.24009;stroke-linecap:round;stroke-dasharray:none;stroke-opacity:1"
       d="m 292.21231,207.09981 c -26.86466,26.27418 -26.86466,26.27418 -26.86466,26.27418 m -10e-6,-26.27419 c 26.27419,26.86466 26.27419,26.86466 26.27419,26.86466" />
    <path
       id="path1-7"
       style="fill:none;fill-opacity:1;stroke:#f5f5f5;stroke-width:2.98053;stroke-linecap:round;stroke-linejoin:round;stroke-dasharray:none;stroke-opacity:1"
       d="m 364.00654,172.62054 2.6e-4,24.35058 v 0 0 m -23.04993,-12.24728 2.1e-4,24.96456 v 0 0 m -22.92414,-37.19279 2.6e-4,24.58888 v 0 0 m 23.01328,-37.92271 22.10525,12.8206 -22.21869,12.75514 -22.10525,-12.8206 z m -0.11323,51.4076 22.21869,-12.75515 -22.21869,12.75515 -22.10525,-12.82061 z" />
    <path
       id="path1-7-9"
       style="fill:none;fill-opacity:1;stroke:#f5f5f5;stroke-width:2.98053;stroke-linecap:round;stroke-linejoin:round;stroke-dasharray:none;stroke-opacity:1"
       d="m 169.86809,47.407755 2.6e-4,24.350584 v 0 0 m -23.04993,-12.247275 2.1e-4,24.964552 v 0 0 m -22.92414,-37.192783 2.6e-4,24.588877 v 0 0 M 146.90803,33.948999 169.01329,46.7696 146.79459,59.524737 124.68934,46.704136 Z M 146.7948,85.3566 169.01349,72.601454 146.7948,85.3566 124.68955,72.53599 Z" />
    <path
       id="path1-7-0"
       style="fill:none;fill-opacity:1;stroke:#f5f5f5;stroke-width:2.98053;stroke-linecap:round;stroke-linejoin:round;stroke-dasharray:none;stroke-opacity:1"
       d="m 80.841956,113.08738 2.57e-4,24.35059 v 0 0 m -23.04993,-12.24728 2.11e-4,24.96455 v 0 0 m -22.924136,-37.19277 2.57e-4,24.58887 v 0 0 M 57.881897,99.628628 79.987152,112.44924 57.768454,125.20437 35.663208,112.38377 Z M 57.768665,151.03623 79.987354,138.28108 57.768665,151.03623 35.663419,138.21562 Z" />
    <path
       id="path1-7-5"
       style="fill:none;fill-opacity:1;stroke:#f5f5f5;stroke-width:2.98053;stroke-linecap:round;stroke-linejoin:round;stroke-dasharray:none;stroke-opacity:1"
       d="m 207.35784,200.29824 2.6e-4,24.3506 v 0 0 m -23.04993,-12.24729 2.1e-4,24.96455 v 0 0 m -22.92413,-37.19277 2.5e-4,24.58887 v 0 0 m 23.01328,-37.92271 22.10526,12.82061 -22.2187,12.75513 -22.10524,-12.8206 z m -0.11323,51.40761 22.21869,-12.75515 -22.21869,12.75515 -22.10524,-12.82062 z" />
    <path
       id="path1-7-4"
       style="fill:none;fill-opacity:1;stroke:#f5f5f5;stroke-width:2.98053;stroke-linecap:round;stroke-linejoin:round;stroke-dasharray:none;stroke-opacity:1"
       d="m 229.43597,211.93156 v 0 m -23.04993,-12.24728 2.1e-4,24.96456 v 0 0 m -22.92388,-12.60391 v 0 m 22.89984,-12.34697 -22.10524,-12.8206 z"
       sodipodi:nodetypes="ccccccccccc" />
    <path
       id="path1-7-49"
       style="fill:none;fill-opacity:1;stroke:#f5f5f5;stroke-width:2.98053;stroke-linecap:round;stroke-linejoin:round;stroke-dasharray:none;stroke-opacity:1"
       d="m 229.54916,162.00524 2.6e-4,24.35058 v 0 0 m -23.04993,-12.24727 2.1e-4,24.96455 v 0 0 m -22.92414,-37.19279 2.6e-4,24.58888 v 0 0 m 23.01328,-37.92271 22.10525,12.8206 -22.21869,12.75514 -22.10525,-12.8206 z m -0.11323,51.4076 22.21869,-12.75514 -22.21869,12.75514 -22.10525,-12.82061 z" />
    <path
       id="path1-7-47"
       style="fill:none;fill-opacity:1;stroke:#f5f5f5;stroke-width:2.98053;stroke-linecap:round;stroke-linejoin:round;stroke-dasharray:none;stroke-opacity:1"
       d="m 439.87926,42.748933 2.6e-4,24.350588 v 0 0 m -23.04993,-12.247278 2.1e-4,24.964555 v 0 0 m -22.92414,-37.19278 2.6e-4,24.588874 v 0 0 m 23.01328,-37.92271 22.10526,12.820601 -22.2187,12.755138 -22.10525,-12.820601 z m -0.11323,51.4076 22.21869,-12.755146 -22.21869,12.755146 -22.10525,-12.82061 z" />
    <path
       id="path1-7-07"
       style="fill:none;fill-opacity:1;stroke:#f5f5f5;stroke-width:2.98053;stroke-linecap:round;stroke-linejoin:round;stroke-dasharray:none;stroke-opacity:1"
       d="m 462.95307,54.22547 2.5e-4,24.350588 v 0 0 m -23.04993,-12.247278 2.1e-4,24.964555 v 0 0 m -22.92413,-37.192779 2.6e-4,24.588873 v 0 0 m 23.01328,-37.92271 22.10525,12.820601 -22.2187,12.755139 0.0239,-0.01368 z m -0.11324,51.4076 22.21869,-12.755146 z"
       sodipodi:nodetypes="cccccccccccccccccccc" />
    <path
       id="path1-7-8"
       style="fill:none;fill-opacity:1;stroke:#f5f5f5;stroke-width:2.98053;stroke-linecap:round;stroke-linejoin:round;stroke-dasharray:none;stroke-opacity:1"
       d="m 439.87952,67.337814 2.5e-4,24.350584 v 0 0 m -23.04993,-12.247276 2.2e-4,24.964558 v 0 0 m -22.92414,-37.192788 2.6e-4,24.588876 v 0 0 m 45.11853,-25.10211 -22.21869,12.755138 z M 416.80623,105.28666 439.02492,92.531513 416.80623,105.28666 394.70098,92.466049 Z"
       sodipodi:nodetypes="cccccccccccccccccccc" />
    <path
       id="path1-7-89"
       style="fill:none;fill-opacity:1;stroke:#f5f5f5;stroke-width:2.98053;stroke-linecap:round;stroke-linejoin:round;stroke-dasharray:none;stroke-opacity:1"
       d="m 252.50947,199.81457 2.6e-4,24.35059 v 0 0 m -23.04993,-12.24727 2.1e-4,24.96455 v 0 0 m -22.92413,-37.19278 2.5e-4,24.58887 v 0 0 m 23.01329,-37.92271 22.10525,12.8206 -22.2187,12.75514 -22.10524,-12.8206 z m -0.11324,51.4076 22.21869,-12.75514 -22.21869,12.75514 -22.10524,-12.82061 z" />
    <circle
       style="fill:none;fill-opacity:1;stroke:#f5f5f5;stroke-width:1.60919;stroke-linecap:round;stroke-linejoin:round;stroke-dasharray:none;stroke-opacity:1"
       id="path1-8"
       cx="64.508415"
       cy="199.68103"
       r="5.1367569" />
    <circle
       style="fill:none;fill-opacity:1;stroke:#f5f5f5;stroke-width:1.60919;stroke-linecap:round;stroke-linejoin:round;stroke-dasharray:none;stroke-opacity:1"
       id="path1-53"
       cx="76.391121"
       cy="211.56374"
       r="5.1367569" />
    <circle
       style="fill:none;fill-opacity:1;stroke:#f5f5f5;stroke-width:1.60919;stroke-linecap:round;stroke-linejoin:round;stroke-dasharray:none;stroke-opacity:1"
       id="path1-1"
       cx="64.508415"
       cy="223.44644"
       r="5.1367569" />
    <circle
       style="fill:none;fill-opacity:1;stroke:#f5f5f5;stroke-width:1.60919;stroke-linecap:round;stroke-linejoin:round;stroke-dasharray:none;stroke-opacity:1"
       id="path1-4"
       cx="76.391121"
       cy="235.32915"
       r="5.1367569" />
    <circle
       style="fill:none;fill-opacity:1;stroke:#f5f5f5;stroke-width:1.60919;stroke-linecap:round;stroke-linejoin:round;stroke-dasharray:none;stroke-opacity:1"
       id="path1-86"
       cx="64.508415"
       cy="247.21187"
       r="5.1367569" />
    <circle
       style="fill:none;fill-opacity:1;stroke:#f5f5f5;stroke-width:1.60919;stroke-linecap:round;stroke-linejoin:round;stroke-dasharray:none;stroke-opacity:1"
       id="path1-8-8"
       cx="293.42392"
       cy="44.408836"
       r="5.1367569" />
    <circle
       style="fill:none;fill-opacity:1;stroke:#f5f5f5;stroke-width:1.60919;stroke-linecap:round;stroke-linejoin:round;stroke-dasharray:none;stroke-opacity:1"
       id="path1-53-8"
       cx="305.30664"
       cy="56.291542"
       r="5.1367569" />
    <circle
       style="fill:none;fill-opacity:1;stroke:#f5f5f5;stroke-width:1.60919;stroke-linecap:round;stroke-linejoin:round;stroke-dasharray:none;stroke-opacity:1"
       id="path1-1-9"
       cx="293.42392"
       cy="68.174255"
       r="5.1367569" />
    <circle
       style="fill:none;fill-opacity:1;stroke:#f5f5f5;stroke-width:1.60919;stroke-linecap:round;stroke-linejoin:round;stroke-dasharray:none;stroke-opacity:1"
       id="path1-4-7"
       cx="305.30664"
       cy="80.056969"
       r="5.1367569" />
    <circle
       style="fill:none;fill-opacity:1;stroke:#f5f5f5;stroke-width:1.60919;stroke-linecap:round;stroke-linejoin:round;stroke-dasharray:none;stroke-opacity:1"
       id="path1-86-7"
       cx="293.42392"
       cy="91.939674"
       r="5.1367569" />
    <circle
       style="fill:none;fill-opacity:1;stroke:#f5f5f5;stroke-width:1.60919;stroke-linecap:round;stroke-linejoin:round;stroke-dasharray:none;stroke-opacity:1"
       id="path1-8-0"
       cx="245.14966"
       cy="-401.53717"
       r="5.1367569"
       transform="rotate(89.683502)" />
    <circle
       style="fill:none;fill-opacity:1;stroke:#f5f5f5;stroke-width:1.60919;stroke-linecap:round;stroke-linejoin:round;stroke-dasharray:none;stroke-opacity:1"
       id="path1-53-3"
       cx="257.03238"
       cy="-389.65448"
       r="5.1367569"
       transform="rotate(89.683502)" />
    <circle
       style="fill:none;fill-opacity:1;stroke:#f5f5f5;stroke-width:1.60919;stroke-linecap:round;stroke-linejoin:round;stroke-dasharray:none;stroke-opacity:1"
       id="path1-1-0"
       cx="245.14966"
       cy="-377.77176"
       r="5.1367569"
       transform="rotate(89.683502)" />
    <circle
       style="fill:none;fill-opacity:1;stroke:#f5f5f5;stroke-width:1.60919;stroke-linecap:round;stroke-linejoin:round;stroke-dasharray:none;stroke-opacity:1"
       id="path1-4-9"
       cx="257.03238"
       cy="-365.88904"
       r="5.1367569"
       transform="rotate(89.683502)" />
    <circle
       style="fill:none;fill-opacity:1;stroke:#f5f5f5;stroke-width:1.60919;stroke-linecap:round;stroke-linejoin:round;stroke-dasharray:none;stroke-opacity:1"
       id="path1-86-2"
       cx="245.14966"
       cy="-354.00632"
       r="5.1367569"
       transform="rotate(89.683502)" />
    <circle
       style="fill:none;fill-opacity:1;stroke:#f5f5f5;stroke-width:1.60919;stroke-linecap:round;stroke-linejoin:round;stroke-dasharray:none;stroke-opacity:1"
       id="path1-8-5"
       cx="459.69958"
       cy="126.27894"
       r="5.1367569" />
    <circle
       style="fill:none;fill-opacity:1;stroke:#f5f5f5;stroke-width:1.60919;stroke-linecap:round;stroke-linejoin:round;stroke-dasharray:none;stroke-opacity:1"
       id="path1-53-9"
       cx="471.58231"
       cy="138.16165"
       r="5.1367569" />
    <circle
       style="fill:none;fill-opacity:1;stroke:#f5f5f5;stroke-width:1.60919;stroke-linecap:round;stroke-linejoin:round;stroke-dasharray:none;stroke-opacity:1"
       id="path1-1-4"
       cx="459.69958"
       cy="150.04437"
       r="5.1367569" />
    <circle
       style="fill:none;fill-opacity:1;stroke:#f5f5f5;stroke-width:1.60919;stroke-linecap:round;stroke-linejoin:round;stroke-dasharray:none;stroke-opacity:1"
       id="path1-4-6"
       cx="471.58231"
       cy="161.92708"
       r="5.1367569" />
    <circle
       style="fill:none;fill-opacity:1;stroke:#f5f5f5;stroke-width:1.60919;stroke-linecap:round;stroke-linejoin:round;stroke-dasharray:none;stroke-opacity:1"
       id="path1-86-9"
       cx="459.69958"
       cy="173.8098"
       r="5.1367569" />
    <circle
       style="fill:none;fill-opacity:1;stroke:#f5f5f5;stroke-width:1.60919;stroke-linecap:round;stroke-linejoin:round;stroke-dasharray:none;stroke-opacity:1"
       id="path1-8-7"
       cx="100.96737"
       cy="-216.04453"
       r="5.1367569"
       transform="rotate(95.595855)" />
    <circle
       style="fill:none;fill-opacity:1;stroke:#f5f5f5;stroke-width:1.60919;stroke-linecap:round;stroke-linejoin:round;stroke-dasharray:none;stroke-opacity:1"
       id="path1-53-7"
       cx="112.85009"
       cy="-204.16182"
       r="5.1367569"
       transform="rotate(95.595855)" />
    <circle
       style="fill:none;fill-opacity:1;stroke:#f5f5f5;stroke-width:1.60919;stroke-linecap:round;stroke-linejoin:round;stroke-dasharray:none;stroke-opacity:1"
       id="path1-1-5"
       cx="100.96737"
       cy="-192.27911"
       r="5.1367569"
       transform="rotate(95.595855)" />
    <circle
       style="fill:none;fill-opacity:1;stroke:#f5f5f5;stroke-width:1.60919;stroke-linecap:round;stroke-linejoin:round;stroke-dasharray:none;stroke-opacity:1"
       id="path1-4-4"
       cx="112.85009"
       cy="-180.39642"
       r="5.1367569"
       transform="rotate(95.595855)" />
    <circle
       style="fill:none;fill-opacity:1;stroke:#f5f5f5;stroke-width:1.60919;stroke-linecap:round;stroke-linejoin:round;stroke-dasharray:none;stroke-opacity:1"
       id="path1-86-8"
       cx="100.96737"
       cy="-168.51372"
       r="5.1367569"
       transform="rotate(95.595855)" />
  </g>
</svg>
